<?xml version="1.0" encoding="UTF-8" standalone="no"?>
<svg
   xmlns:dc="http://purl.org/dc/elements/1.1/"
   xmlns:cc="http://creativecommons.org/ns#"
   xmlns:rdf="http://www.w3.org/1999/02/22-rdf-syntax-ns#"
   xmlns:svg="http://www.w3.org/2000/svg"
   xmlns="http://www.w3.org/2000/svg"
   version="1.1"
   viewBox="0 0 883.92913 713.74554"
   height="713.74554"
   width="883.92913"
   data-name="Layer 1"
   id="bdb04d07-607e-4453-aab0-0c653d7063a3">
  <metadata
     id="metadata388">
    <rdf:RDF>
      <cc:Work
         rdf:about="">
        <dc:format>image/svg+xml</dc:format>
        <dc:type
           rdf:resource="http://purl.org/dc/dcmitype/StillImage" />
        <dc:title>real_time_collaboration</dc:title>
      </cc:Work>
    </rdf:RDF>
  </metadata>
  <defs
     id="defs386" />
  <title
     id="title227">real_time_collaboration</title>
  <g
     style="display:none"
     id="layer4">
    <circle
       r="2.6673732"
       cy="106.24884"
       cx="305.03009"
       style="fill:#000000;stroke:#000000"
       id="path1271" />
    <path
       d="m 239.57732,204.30304 c 10.85658,21.65416 22.90617,42.65437 35.11488,63.56512 13.38093,21.32923 28.66298,41.50925 46.24683,59.56101 4.20151,4.31331 8.39689,8.65791 12.98069,12.56253 4.41629,3.76193 9.30876,6.92604 13.96314,10.38906 5.44415,2.66952 10.49103,6.38287 16.33245,8.00855 15.87054,4.41679 32.98832,2.81477 48.82505,-0.24386 9.36856,-1.8094 18.87287,-3.70311 27.62259,-7.50919 27.51992,-11.971 55.09756,-34.11775 78.77413,-51.08126 11.55973,-10.11686 23.29816,-20.03309 34.67917,-30.35059 18.77919,-17.02435 38.41401,-36.13762 56.1663,-54.38684 12.35365,-12.69947 21.01994,-22.06401 31.97298,-35.30768 2.61763,-3.16506 5.04439,-6.48325 7.56659,-9.72487 -0.23085,-0.82017 0.0183,-2.9303 -0.69255,-2.46051 -22.04438,14.56963 -20.73727,14.80944 -33.33115,34.24071 -5.37785,8.29756 -10.81337,16.56385 -15.88416,25.05252 -12.60332,21.09839 -29.21755,51.89428 -40.83092,73.06289 -19.28493,34.71467 -36.83445,70.34062 -54.42046,105.93096 -10.03186,20.30236 -14.47518,30.27341 -25.50915,49.34511 -3.49966,6.04901 -7.36861,11.8767 -11.05292,17.81505 -7.88896,11.52517 -16.39928,22.67052 -26.20977,32.6395 -1.93944,1.97077 -4.02797,3.78904 -6.04196,5.68357 0,0 16.48588,-6.80908 16.48588,-6.80908 v 0 c 1.80942,-1.85204 3.69011,-3.63703 5.42825,-5.55612 8.91118,-9.83887 16.55491,-20.73394 23.71143,-31.8894 3.32023,-5.80321 6.80422,-11.51574 9.9607,-17.40962 10.46213,-19.5352 13.64244,-27.56158 23.24916,-48.37325 16.35022,-35.42057 32.97715,-70.74005 52.0593,-104.80013 17.50528,-30.75298 25.11977,-45.28328 44.18342,-74.45806 5.77566,-8.839 11.90583,-17.44548 18.13092,-25.97391 4.40236,-6.03127 11.72342,-10.50223 13.74138,-17.69143 0.78214,-2.78646 -13.42184,5.83469 -8.5314,-1.61242 -1.95762,2.96354 -3.77363,6.02565 -5.87287,8.89062 -9.12353,12.45152 -17.48904,22.02508 -28.22047,33.60425 -27.62069,29.80261 -57.15974,57.80794 -88.53884,83.63609 -22.83724,17.80922 -33.77933,28.64544 -60.96389,40.29822 -8.59105,3.68259 -17.87724,5.61202 -27.06248,7.34377 -15.18224,2.86241 -31.51997,4.06857 -46.64639,-0.30631 -5.72139,-1.65475 -10.69205,-5.2507 -16.03808,-7.87604 -4.67135,-3.37575 -9.56718,-6.46082 -14.01404,-10.12723 -4.6415,-3.82689 -8.97013,-8.0295 -13.19799,-12.30896 -13.28301,-13.44514 -25.17954,-28.50508 -35.83134,-44.09927 -3.4389,-5.03453 -6.57096,-10.27195 -9.85645,-15.40792 -2.90263,-5.06219 -5.90698,-10.0674 -8.70789,-15.18657 -8.78717,-16.06016 -16.63568,-32.71874 -22.76443,-49.97921 0,0 -16.97564,9.3002 -16.97564,9.3002 z"
       id="path1273"
       style="fill:#000000;fill-opacity:1;stroke:#000000;stroke-width:25.025;stroke-miterlimit:4;stroke-dasharray:none" />
    <path
       d="m 58.670173,64.140798 c 0.354713,1.244232 0.628674,2.514375 1.064138,3.732696 1.482826,4.148579 3.260707,8.18953 4.687102,12.357848 2.155827,6.29992 4.103513,12.669726 6.055735,19.035683 5.529638,18.031475 10.186174,33.947425 14.659873,52.391965 2.52016,10.39033 4.649581,20.87157 6.974371,31.30735 8.557858,41.32127 14.806108,83.13556 18.752018,125.14889 1.54596,16.46033 2.33643,30.04948 3.40498,46.35492 0.49365,5.31181 0.79345,10.64522 1.48096,15.93544 0.45807,3.52469 0.62848,7.18415 1.95235,10.48273 5.1376,12.80094 24.04225,-8.14327 25.59306,-9.56564 3.33192,-3.05595 13.39559,-31.2597 13.45768,-31.42184 7.58177,-20.83538 13.04886,-37.13035 22.65191,-57.5586 16.16797,-34.3936 36.0245,-67.63846 61.00855,-96.40799 7.69791,-8.86427 16.42343,-16.78105 24.63514,-25.17158 22.53169,-18.04073 24.29954,-20.7218 47.90289,-35.09928 2.53531,-1.54433 5.22547,-2.91156 8.06486,-3.77793 8.04335,-2.45421 17.18647,-5.50032 24.97489,0.20093 3.28099,2.40174 4.79934,6.56501 7.19901,9.84751 1.09085,6.01141 3.11211,11.92674 3.27253,18.03421 0.58222,22.16604 -4.77053,48.19867 -9.45176,69.23549 -8.86519,39.83897 -21.10761,79.2365 -32.91658,118.28709 -10.54307,33.7034 -5.67071,18.11929 -14.61911,46.75169 0,0 12.77952,-6.09807 12.77952,-6.09807 v 0 c 5.94075,-27.32992 2.54083,-12.4099 10.38636,-44.71713 2.95655,-11.37735 5.83301,-22.77582 8.86964,-34.13206 5.99632,-22.42469 17.00459,-61.39901 22.72353,-83.57906 4.72919,-18.34141 13.76853,-52.07103 14.94621,-72.45467 0.37805,-6.54334 -1.36198,-13.03756 -2.04298,-19.55634 -2.52058,-3.64012 -3.97601,-8.32301 -7.56175,-10.92038 -7.92366,-5.73957 -20.3054,-2.86488 -27.9523,0.56177 -10.43557,4.67628 -20.18481,10.78015 -29.9495,16.73158 -20.14599,12.27865 -26.79607,18.95931 -45.61564,34.42524 -7.99286,8.33696 -16.48747,16.22032 -23.97859,25.01087 -17.11323,20.08173 -29.75213,39.64147 -42.98437,62.45844 -17.39644,29.99749 -31.8012,61.48541 -44.73504,93.62368 -3.16879,6.72058 -5.99189,13.6153 -9.50639,20.16173 -2.29178,4.26888 -9.01052,7.50615 -7.87616,12.21665 0.82211,3.41383 7.50298,-0.66181 10.0859,-3.04059 1.21989,-1.12348 -3.5973,-0.70866 -4.51497,-2.09005 -3.14761,-4.73818 -5.30375,-21.13261 -5.95995,-24.80087 -5.87056,-45.85095 -11.14662,-91.72982 -19.15456,-137.2781 -1.92344,-10.94032 -4.02714,-21.84818 -6.04071,-32.77227 -2.083731,-10.57917 -4.032404,-21.18584 -6.251191,-31.73751 -6.40021,-30.43684 -15.209693,-60.428713 -19.418506,-91.289015 0,0 -17.05315,9.174573 -17.05315,9.174573 z"
       id="path1275"
       style="fill:#000000;fill-opacity:1;stroke:#000000;stroke-width:103.825;stroke-miterlimit:4;stroke-dasharray:none" />
    <circle
       r="68.801605"
       cy="92.070633"
       cx="407.82443"
       style="fill:#000000;stroke:#000000"
       id="path1277" />
    <path
       d="m 39.235994,17.491391 c 1.211439,-0.04688 2.421972,-0.141379 3.634318,-0.140653 10.13805,0.0061 20.302458,1.026531 30.392826,1.854157 26.735992,2.192925 1.568114,0.288984 29.200862,2.312363 38.87462,1.794151 77.79207,2.139552 116.67189,3.792838 46.42735,1.90158 92.55201,7.571067 138.68035,12.837308 9.84363,0.922504 19.67631,1.970575 29.5309,2.767511 11.5666,0.935385 23.15276,1.610684 34.72822,2.429091 24.43356,1.727499 48.8543,3.640138 73.29613,5.24632 12.06611,0.792918 61.329,3.635039 74.00506,4.372023 30.31076,1.47245 60.61833,3.219107 90.95285,4.16262 26.5221,0.824933 53.06486,0.982844 79.5967,1.189462 49.69389,0.389867 99.40739,-0.593317 149.08467,1.021896 4.32527,0.268592 8.65054,0.537185 12.97581,0.805778 0,0 13.91772,-10.022152 13.91772,-10.022152 v 0 c -4.57134,-0.107921 -9.14269,-0.215843 -13.71403,-0.323764 -22.21497,-0.07196 -44.42048,0.303007 -66.63564,0.354928 -19.56349,0.04572 -37.27139,-0.05342 -56.83042,-0.153178 -9.04073,-0.04611 -18.08142,-0.101298 -27.12213,-0.151947 C 694.21094,49.34943 636.80871,48.48129 579.47498,45.710206 509.40837,42.04219 439.34641,37.455904 369.5887,29.806861 323.79071,24.057303 277.96687,18.098294 231.80548,16.192255 219.79044,15.616777 203.18074,14.756095 191.09289,14.429881 184.90955,14.263011 178.72226,14.291052 172.53808,14.158597 153.7283,13.755722 134.91676,13.082693 116.14877,11.73228 103.49079,10.736524 99.732884,10.518133 87.254861,9.2394621 77.634928,8.2536706 68.040307,6.8220494 58.39677,6.0701062 57.316656,5.9858856 56.232014,5.9763376 55.149637,5.9294533 c 0,0 -15.913643,11.5619377 -15.913643,11.5619377 z"
       id="path1279"
       style="fill:#000000;fill-opacity:1;stroke:#000000;stroke-width:103.825;stroke-miterlimit:4;stroke-dasharray:none" />
    <path
       d="m 118.60027,124.87694 c -36.58684,1.1803 -73.201439,1.39559 -109.8049168,1.31871 -18.7755422,-0.16813 -20.3041292,-0.26738 -37.8025672,-0.13498 -4.072594,0.0308 -8.144744,0.10534 -12.217016,0.16514 -1.088332,0.016 -4.250109,-0.40017 -3.264756,0.0622 48.4302255,22.72642 42.1266942,10.11133 123.387873,9.0427 148.905053,3.53085 297.575653,13.20521 445.927823,26.23592 48.09424,4.22442 96.13359,9.06277 144.1628,13.97162 39.83789,4.07165 79.66703,8.25641 119.43414,12.96944 28.07196,3.32696 56.04614,7.4326 84.06921,11.1489 16.18333,3.3752 32.36666,6.7504 48.54999,10.12561 2.74586,2.47936 11.79933,6.4376 8.23759,7.4381 -4.54086,1.27553 -8.02245,-5.89833 -12.73088,-6.17593 -22.08723,-1.30222 -44.23545,1.77343 -66.3595,1.51291 C 776.10775,211.68496 727.70561,206.76593 652.19257,201.16786 537.9,191.14514 423.5951,181.28971 309.19895,172.51564 278.1824,170.1367 247.1432,168.05519 216.13256,165.60039 173.80501,162.24975 129.13745,158.10768 86.647403,154.26051 73.439926,152.86556 60.178412,151.9115 47.024971,150.07565 c -6.919894,-0.96582 -13.8739,-2.09762 -20.53352,-4.21119 -1.818297,-0.57708 -2.883583,-4.8864 -4.37196,-3.6931 -1.980855,1.58814 -3.033171,7.41216 -0.501251,7.60016 16.006633,1.18855 31.962376,-3.03527 47.97938,-4.07475 23.541396,-1.5278 47.11987,-2.41738 70.67981,-3.62607 76.6406,-3.69639 153.34863,-5.61531 230.04286,-7.76748 0,0 4.37342,-3.20121 4.37342,-3.20121 v 0 c -76.56814,3.2678 -153.1476,6.32255 -229.78198,7.57891 -22.27348,0.26177 -44.54611,0.60899 -66.820425,0.78531 -14.310546,0.11329 -28.848775,-2.45458 -42.932901,0.0835 -18.256146,3.28994 -41.6007981,12.25694 -21.169033,15.13265 7.862896,1.10668 15.809525,1.53178 23.733538,2.04158 14.120953,0.90848 28.261821,1.47514 42.392731,2.21272 25.64467,1.29554 115.64249,5.78834 135.47229,7.05333 31.11395,1.98484 62.19925,4.39963 93.2872,6.75701 114.40388,8.67517 228.69482,18.70932 342.99363,28.65223 61.53336,5.10206 130.58749,11.16001 192.75827,15.18882 32.02911,2.07556 69.14821,10.31544 99.03835,-8.90803 19.60346,-12.60771 -195.52246,17.445 -69.29492,-9.35228 -28.54077,-3.35017 -57.06498,-6.84458 -85.62231,-10.05052 -85.53369,-9.6023 -178.31342,-19.45061 -263.59761,-26.94199 -116.86228,-10.26522 -196.25932,-15.86862 -313.06954,-21.4734 -44.18985,-2.12031 -88.42031,-3.28673 -132.63047,-4.93009 -114.101177,-6.93334 -54.672266,-9.87243 -139.179157,2.8439 -1.558293,0.23448 2.972646,-1.14199 4.537676,-1.32622 4.655623,-0.54805 27.557107,-1.27147 30.358284,-1.32781 7.199585,-0.14482 14.401532,-0.12587 21.6022984,-0.1888 35.3929666,-0.0739 70.8002616,0.0893 106.1748086,1.31872 0,0 15.65583,-11.37463 15.65583,-11.37463 z"
       id="path1281"
       style="fill:#000000;fill-opacity:1;stroke:#000000;stroke-width:103.825;stroke-miterlimit:4;stroke-dasharray:none" />
    <path
       d="m 785.85774,119.19471 c 11.26603,0.0598 22.54812,0.26489 33.79657,0.93969 1.19821,0.21022 2.50506,0.0896 3.59463,0.63067 0.59519,0.29557 -2.27274,0.76764 -1.98654,0.16789 1.2216,-2.55991 7.96338,-6.48901 5.14191,-6.7801 -10.73469,-1.1075 -21.37485,3.07859 -32.12746,3.99599 -22.83569,1.94831 -45.71239,3.4453 -68.60203,4.59812 -32.58942,1.64133 -65.21269,2.52234 -97.81904,3.78352 -36.65262,0.84065 -73.30837,1.55406 -109.95785,2.52194 -38.27557,1.01083 -76.55411,1.97544 -114.81599,3.41418 -36.59385,1.37603 -73.17001,3.19914 -109.74394,5.02987 -77.63616,3.88611 -155.20876,8.71985 -232.754996,14.07046 -14.543214,1.0451 -29.078694,2.20405 -43.629642,3.13529 -8.5056258,0.54435 -17.01343225,1.2825 -25.5364541,1.29125 -0.4234901,4.4e-4 -0.4546927,-1.52265 -0.118661,-1.26491 3.660197,2.80734 5.8016326,8.65611 10.3887994,9.14204 15.8402627,1.678 31.7854847,-2.16606 47.6930927,-2.98926 23.068404,-1.19375 46.15344,-2.0409 69.230161,-3.06136 114.49399,-5.19937 229.27402,-3.22157 343.50037,6.18614 54.3318,4.47478 67.32887,6.75178 118.1932,13.46989 15.05439,2.96335 48.6491,7.77998 64.31756,16.41831 3.86408,2.13035 18.72531,15.29949 12.01563,23.61865 -5.07653,6.29425 -13.07765,9.8021 -20.55137,12.88953 -11.2513,4.64795 -23.39771,6.73256 -35.09656,10.09884 -93.8102,27.15639 -189.24481,48.19238 -284.36311,70.15487 -17.37029,4.01074 -34.7778,7.86407 -52.10779,12.04546 -13.16376,3.17616 -26.24529,6.68389 -39.36794,10.02584 -7.78419,3.30345 -44.06773,15.98585 -44.7157,28.29363 -0.39913,7.58122 12.72306,9.19515 20.19743,10.52483 23.01271,4.09394 46.57909,4.0166 69.90573,5.50444 35.59688,2.27047 71.23466,3.84645 106.852,5.76967 42.26352,2.84157 84.52705,5.68315 126.79057,8.52472 58.42097,4.00933 187.9361,12.76693 248.80163,17.42753 32.03089,2.45267 64.08393,4.7148 96.04655,7.93728 32.51935,3.27861 82.7459,10.207 116.93783,16.37643 10.25174,1.84977 20.38283,4.31507 30.57424,6.4726 0,0 10.81463,-7.58181 10.81463,-7.58181 v 0 c -11.17666,-1.48283 -22.32584,-3.18982 -33.52995,-4.44847 -43.65207,-4.90382 -79.74996,-7.37496 -124.47284,-11.05003 -32.01683,-2.63095 -64.01583,-5.48489 -96.04681,-7.93763 -60.86195,-4.66045 -190.38473,-13.4186 -248.80173,-17.42767 -58.49493,-3.93283 -167.18666,-10.30124 -228.88482,-17.66182 -20.8071,-2.48228 -41.62253,-5.51767 -61.99128,-10.43816 -6.32641,-1.52828 -11.64807,-5.81045 -17.45314,-8.75329 -1.79134,-0.90811 -6.95578,-1.61267 -5.33539,-2.79923 7.52826,-5.5127 16.90368,-7.90722 25.35552,-11.86083 13.81696,-3.88384 27.57521,-7.98298 41.45089,-11.6515 18.00515,-4.76029 36.10316,-9.16315 54.18271,-13.63257 49.42417,-12.2181 91.796,-22.30684 141.66324,-34.02065 25.3177,-5.94713 50.70832,-11.58517 75.98975,-17.68463 21.27571,-5.13303 42.45083,-10.67436 63.67625,-16.01153 6.20596,-2.36206 66.52213,-20.05967 78.87829,-37.13743 2.47137,-3.41574 0.33083,-8.98416 -2.01646,-12.48633 -3.27079,-4.88005 -8.37983,-8.63862 -13.74554,-11.03069 -16.9369,-7.55055 -52.92255,-11.27731 -68.70655,-13.62139 -49.97545,-4.76476 -70.17859,-7.05329 -122.65538,-10.32681 -26.86006,-1.67554 -53.74283,-2.9912 -80.63044,-4.14306 -86.88426,-3.72207 -173.85687,-5.41662 -260.81551,-3.58029 -21.88539,0.14573 -43.770845,0.28245 -65.656177,0.43719 -14.698562,0.10393 -29.542928,-1.73038 -44.095488,0.33881 -13.0836962,1.86034 -25.265294,7.77125 -37.991581,11.33294 -1.472701,0.41216 2.679269,-1.62473 4.188354,-1.87249 9.452999,-1.55199 19.0088532,-2.39749 28.5249408,-3.49837 15.4460782,-1.78691 30.9069812,-3.44325 46.3604722,-5.16487 51.107349,-5.07344 90.666689,-9.34332 142.870699,-12.87766 31.75848,-2.15013 63.55849,-3.64503 95.34986,-5.23649 36.5738,-1.83087 73.14983,-3.65424 109.74356,-5.03038 70.22804,-2.641 154.31982,-4.32047 224.77364,-5.9364 31.00164,-0.0859 62.00334,-0.15084 93.00492,-0.25772 20.9403,-0.0722 41.88368,0.10048 62.82065,-0.2795 9.68697,-0.17581 19.60791,0.85845 29.03255,-1.3875 9.46878,-2.25648 18.20889,-7.07983 26.67272,-11.88743 1.62674,-0.92402 -1.50025,-7.53437 -4.13985,-3.78981 -11.04005,-0.51686 -22.12561,-0.36781 -33.12668,-1.55016 0,0 -15.94086,11.58172 -15.94086,11.58172 z"
       id="path1283"
       style="fill:#000000;fill-opacity:1;stroke:#000000;stroke-width:103.825;stroke-miterlimit:4;stroke-dasharray:none" />
    <path
       d="m 724.22777,466.02141 c -6.40055,2.86953 -9.93002,4.6958 -17.47474,6.48093 -20.07265,4.74934 -54.34473,9.53672 -71.96806,11.88077 -52.87153,7.03234 -95.6158,11.34327 -149.35106,17.21883 -90.05222,9.39706 -180.19152,17.95618 -270.33638,26.41147 -24.13678,2.26396 -136.036645,12.4444 -164.033449,15.2555 -19.998969,2.00806 -39.964145,4.33951 -59.9462171,6.50926 61.2539081,39.54972 -55.2491329,-7.70336 -50.8447369,8.93116 1.704342,6.43696 8.050842,12.66097 14.64507,13.58582 27.268704,3.82449 55.0716208,-0.10367 82.606764,0.0539 33.699266,0.19288 240.523559,2.27608 266.848309,2.53634 139.3592,1.02138 278.722,1.32774 418.08363,1.83239 0,0 0.32207,-0.23382 0.32207,-0.23382 v 0 c -139.36158,-0.50465 -278.72433,-0.81098 -418.08348,-1.83219 -69.01408,-0.68219 -192.54158,-1.17134 -264.113032,-4.50599 -24.727709,-1.15212 -49.263332,-5.86679 -74.017231,-6.04421 -13.350229,-0.0957 -26.409075,6.39212 -39.708894,5.22912 -20.072705,-1.75526 139.169893,-39.89175 58.491991,-15.25244 20.8608849,-2.8281 41.682328,-5.96418 62.582654,-8.48431 45.38018,-5.47188 122.358492,-12.95256 166.565152,-17.13499 60.50452,-5.72439 121.0401,-11.11658 181.54875,-16.79717 28.95496,-2.7183 57.908,-5.45694 86.86199,-8.18542 47.76982,-4.23755 95.56345,-8.2142 143.31033,-12.70287 10.00042,-0.94014 51.42343,-4.84672 66.68059,-7.56459 6.24736,-1.11288 10.45901,-2.87205 16.03254,-4.96303 0,0 15.29744,-12.22449 15.29744,-12.22449 z"
       id="path1285"
       style="fill:#000000;fill-opacity:1;stroke:#000000;stroke-width:103.825;stroke-miterlimit:4;stroke-dasharray:none" />
    <path
       d="m 822.42514,270.115 c -1.96573,1.10544 -3.89654,2.27541 -5.89719,3.31631 -27.96831,14.55135 -57.64142,25.32979 -87.25716,35.95856 -12.10878,4.34571 -24.24551,8.61314 -36.36827,12.91971 -48.87446,17.85103 -96.50056,38.85022 -144.69994,58.39245 -17.20292,6.97485 -34.35573,14.09056 -51.75436,20.56176 -52.934,19.68812 -57.17541,19.79933 -111.29534,35.37006 -75.63555,19.52879 -153.27633,28.79357 -230.46579,39.64668 -55.282865,7.77296 -49.92088,7.11286 -103.335475,15.28625 -13.916936,2.2278 -27.833871,4.4556 -41.750806,6.6834 0,0 -8.83727172,6.64904 -8.83727172,6.64904 v 0 C 15.081945,502.36505 29.400353,499.83088 43.71876,497.29671 c 55.696698,-9.02303 46.879624,-7.8249 104.50333,-16.18029 77.19721,-11.19353 154.97231,-20.10728 230.66156,-39.65399 51.96954,-14.92252 60.20064,-16.2404 110.92196,-34.97809 17.37873,-6.42013 34.49288,-13.53668 51.66935,-20.47983 47.17082,-19.06761 93.86573,-39.39685 141.89894,-56.27042 29.66415,-10.17516 59.46688,-19.93261 88.59569,-31.58239 10.39588,-4.15773 20.11157,-8.20083 30.0979,-13.05825 1.82499,-0.88769 3.57352,-1.92464 5.36028,-2.88696 0,0 14.99737,-12.09149 14.99737,-12.09149 z"
       id="path1287"
       style="fill:#000000;fill-opacity:1;stroke:#000000;stroke-width:103.825;stroke-miterlimit:4;stroke-dasharray:none" />
    <path
       d="m -5.9689573,240.88669 c 6.9894222,17.36597 13.4627273,34.9611 18.3897933,53.0375 2.036296,7.47076 3.765097,15.02195 5.647646,22.53292 10.864362,50.0672 16.24386,101.18562 20.903578,152.14817 2.497845,29.8411 3.396028,59.78535 3.518333,89.72082 0,0 15.50386,-7.95472 15.50386,-7.95472 v 0 c -1.564317,-29.59102 -3.291489,-59.17328 -5.701416,-88.70991 -0.745568,-7.8645 -1.396739,-15.73851 -2.236703,-23.59349 -4.611565,-43.12535 -10.945133,-86.10274 -18.702,-128.7669 -4.159927,-19.39748 -4.80702,-23.55946 -9.576923,-41.8232 -1.227445,-4.69984 -2.552879,-9.37441 -3.936509,-14.03066 -1.644211,-5.53316 -3.677437,-10.9462 -5.303726,-16.48466 -0.526589,-1.79333 -0.931164,-3.62026 -1.396745,-5.4304 0,0 -17.1091883,9.35453 -17.1091883,9.35453 z"
       id="path1289"
       style="fill:#000000;fill-opacity:1;stroke:#000000;stroke-width:103.825;stroke-miterlimit:4;stroke-dasharray:none" />
    <path
       d="m 19.20894,663.17319 c 1.484313,0.0389 2.970723,0.0287 4.45294,0.11663 6.795589,0.40314 13.567698,1.13838 20.357482,1.62969 8.453389,0.61168 16.905788,1.24828 25.367721,1.72747 22.092694,1.2511 72.467397,3.40274 91.620737,4.25276 96.27038,3.31651 192.57909,5.32875 288.86258,8.19766 51.09731,1.52252 78.61637,2.5723 129.16409,4.37151 66.2064,2.44902 132.48838,4.12889 198.55821,9.28725 26.68451,2.08338 39.09582,3.5168 64.6814,6.17418 27.02444,3.1207 14.49785,1.60691 37.58623,4.48764 0,0 13.45791,-9.57569 13.45791,-9.57569 v 0 c -24.49421,-1.84553 -11.23898,-0.8564 -39.76647,-2.95713 -36.68271,-2.59531 -73.39302,-5.43973 -110.13335,-7.08264 -52.87444,-2.36439 -105.8289,-2.60043 -158.71998,-4.42191 -94.61595,-2.51117 -32.44114,-0.93885 -130.76393,-3.22013 -95.16707,-2.20805 -190.39841,-3.9627 -285.38447,-10.6704 -27.08756,-2.13207 -59.51554,-4.40762 -87.052364,-7.45836 -7.802083,-0.86437 -15.558419,-2.10101 -23.336962,-3.15643 -7.700926,-1.04489 -15.401511,-2.0918 -23.089832,-3.22647 0,0 -15.861942,11.52437 -15.861942,11.52437 z"
       id="path1291"
       style="fill:#000000;fill-opacity:1;stroke:#000000;stroke-width:103.825;stroke-miterlimit:4;stroke-dasharray:none" />
    <path
       d="m 840.54919,195.47865 c 0.44965,2.37373 0.85875,4.75551 1.34897,7.1212 3.71126,17.91 2.81467,11.226 6.57877,32.7913 4.43178,25.39054 3.5854,23.58133 7.57695,50.68447 1.70826,11.59932 3.55765,23.17743 5.33647,34.76614 8.00884,54.8084 15.20181,109.74274 21.72742,164.74773 2.68244,22.61053 5.07894,45.25409 7.66877,67.87541 3.85354,32.5484 6.78218,65.19672 8.3843,97.9327 0,0 15.53222,-8.06919 15.53222,-8.06919 v 0 C 911.16661,611.23947 907.21342,579.19716 902.62705,547.23984 891.5822,469.95633 881.57814,392.51392 872.54818,314.97 c -2.3728,-21.15644 -4.47836,-42.34349 -7.02464,-63.47974 -2.60921,-21.6585 -6.27989,-43.23156 -7.87868,-64.99855 0,0 -17.09567,8.98694 -17.09567,8.98694 z"
       id="path1293"
       style="fill:#000000;fill-opacity:1;stroke:#000000;stroke-width:103.825;stroke-miterlimit:4;stroke-dasharray:none" />
    <path
       d="m 751.16272,291.48928 c 1.22168,4.59853 1.95368,7.27473 3.1487,12.24211 2.76863,11.50855 3.67895,15.2998 5.47258,28.0538 2.46317,17.515 2.94093,26.66861 4.42291,44.62594 2.11109,31.05126 3.299,62.1654 4.0284,93.27771 0.29171,12.44298 0.29052,24.89205 0.62449,37.33397 0.77841,29.00006 1.71767,43.68968 3.21183,72.45233 2.65737,42.39762 1.27903,21.86727 4.10188,61.59328 0,0 12.41306,-6.45682 12.41306,-6.45682 v 0 c -3.8324,-39.22461 -2.03641,-18.91825 -5.30789,-60.92611 -1.68001,-27.8508 -2.91563,-44.13065 -3.55931,-72.21235 -0.28663,-12.50466 -0.18009,-25.01525 -0.27454,-37.52284 -0.23775,-31.48516 -0.36884,-62.98321 -1.93499,-94.43909 -1.82716,-29.18404 -3.40519,-58.48372 -9.33629,-87.19139 0,0 -17.01083,9.16946 -17.01083,9.16946 z"
       id="path1295"
       style="fill:#000000;fill-opacity:1;stroke:#000000;stroke-width:103.825;stroke-miterlimit:4;stroke-dasharray:none" />
    <path
       d="m 624.05366,646.20387 c 2.49383,-0.10916 4.9868,-0.24021 7.48149,-0.32749 10.84885,-0.37955 30.54043,-0.85535 40.01034,-1.29886 36.29011,-1.6996 72.49795,-4.52474 108.70073,-7.49259 10.85416,-1.128 21.70832,-2.256 32.56247,-3.38401 0,0 10.51048,-7.81395 10.51048,-7.81395 v 0 c -11.04777,1.28515 -22.09554,2.5703 -33.14331,3.85545 -12.21662,1.05535 -24.41775,2.30863 -36.64986,3.16605 -37.79861,2.64952 -75.78414,3.80269 -113.6422,1.79413 0,0 -15.83014,11.50127 -15.83014,11.50127 z"
       id="path1297"
       style="fill:#000000;fill-opacity:1;stroke:#000000;stroke-width:103.825;stroke-miterlimit:4;stroke-dasharray:none" />
    <path
       d="m 810.68858,451.45152 c 14.48691,41.27866 23.51331,84.14913 33.12106,126.74264 6.96047,34.09274 3.80583,17.54814 9.54346,49.61858 0,0 13.28611,-7.09289 13.28611,-7.09289 v 0 c -6.6093,-31.69047 -3.12321,-15.29901 -10.48673,-49.16832 -9.975,-43.03004 -19.59439,-86.13991 -28.48542,-129.40803 0,0 -16.97848,9.30802 -16.97848,9.30802 z"
       id="path1299"
       style="fill:#000000;fill-opacity:1;stroke:#000000;stroke-width:103.825;stroke-miterlimit:4;stroke-dasharray:none" />
    <path
       d="m 730.20657,268.08701 c -34.32722,1.76093 -67.21091,13.67743 -99.55011,24.31627 -44.3464,16.00999 -89.43286,30.01105 -135.39683,40.59403 -27.76036,6.39168 -39.81773,8.23348 -67.79459,13.29601 -46.56377,7.14595 -93.26385,13.48471 -140.08588,18.69296 -3.46573,0.39834 -6.93146,0.79668 -10.3972,1.19502 0,0 -14.17077,10.58142 -14.17077,10.58142 v 0 c 3.64548,-0.53656 7.29096,-1.07311 10.93645,-1.60967 18.48257,-2.57931 36.93832,-5.33147 55.40724,-8.00664 18.85248,-2.73073 37.7339,-5.2642 56.56802,-8.11883 10.5175,-1.59411 21.0103,-3.34719 31.51545,-5.02078 28.7138,-5.19319 39.54109,-6.79598 68.0497,-13.38583 45.58526,-10.53718 90.36224,-24.23343 134.47599,-39.77096 18.6487,-5.92631 32.46259,-10.69523 51.18429,-15.32312 14.11776,-3.48983 28.74924,-6.35587 43.36823,-5.89511 0,0 15.89001,-11.54477 15.89001,-11.54477 z"
       id="path1301"
       style="fill:#000000;fill-opacity:1;stroke:#000000;stroke-width:103.825;stroke-miterlimit:4;stroke-dasharray:none" />
    <path
       d="m 460.68022,232.89911 c -22.99772,-0.51313 -46.00685,-0.11031 -69.00775,-0.0269 -40.37702,-0.0156 -80.75385,-0.038 -121.13084,-0.17502 -20.81241,0.14419 -41.62452,-0.81968 -62.43488,-0.68619 -4.75562,0.29938 -2.52136,-0.009 -6.71549,0.82772 0,0 -15.30189,11.71949 -15.30189,11.71949 v 0 c 4.17695,-1.32784 1.90848,-0.79391 6.83936,-1.45005 21.53027,-1.12991 43.13448,-0.48068 64.68056,-1.01541 40.38865,-0.12193 80.77703,-0.14303 121.16511,0.14112 21.98785,0.29236 44.02291,0.41106 65.96215,2.0105 0,0 15.94367,-11.34523 15.94367,-11.34523 z"
       id="path1303"
       style="fill:#000000;fill-opacity:1;stroke:#000000;stroke-width:103.825;stroke-miterlimit:4;stroke-dasharray:none" />
    <path
       d="m 135.76003,430.20877 c 13.06762,-0.43957 26.1474,-0.39231 39.22098,-0.41786 2.59231,0.007 5.18462,0.0149 7.77693,0.0224 0,0 14.79926,-10.75229 14.79926,-10.75229 v 0 c -2.61283,0.007 -5.22565,0.0149 -7.83847,0.0224 -12.68995,-0.0249 -25.38732,0.0348 -38.07069,-0.41787 0,0 -15.88801,11.54331 -15.88801,11.54331 z"
       id="path1305"
       style="fill:#000000;fill-opacity:1;stroke:#000000;stroke-width:103.825;stroke-miterlimit:4;stroke-dasharray:none" />
    <path
       d="m 317.81818,70.765055 c -8.77299,3.937058 -17.80992,6.969226 -27.04618,9.616605 -13.82216,3.8402 -28.07027,6.313463 -41.48118,11.499338 -9.12758,4.432798 -18.2756,9.130832 -26.10364,15.630112 0,0 17.86155,-7.16554 17.86155,-7.16554 v 0 c 11.64762,-8.911803 -21.98737,12.2257 -6.51297,3.15488 1.6714,-0.71817 3.30498,-1.53171 5.01421,-2.15452 1.8668,-0.68023 3.79401,-1.18194 5.69828,-1.748911 10.25921,-3.054543 20.65865,-5.575292 31.05712,-8.103781 4.40481,-1.140955 9.09608,-2.2749 13.45452,-3.671798 3.99028,-1.278904 3.66995,-1.384064 7.32028,-2.899635 1.71965,-0.713979 3.48138,-1.324083 5.18635,-2.074727 0,0 15.55166,-12.082023 15.55166,-12.082023 z"
       id="path1307"
       style="fill:#000000;fill-opacity:1;stroke:#000000;stroke-width:103.825;stroke-miterlimit:4;stroke-dasharray:none" />
    <path
       d="M 96.047226,111.47794 C 90.093871,110.78258 84.381934,108.88852 78.669151,107.1749 64.861532,103.03312 75.093474,106.21679 59.986908,101.41219 46.355304,96.668581 32.525549,92.393175 19.229407,86.739358 13.180639,84.167287 11.616035,83.262862 6.1043648,80.450354 c -3.3059763,-2.147133 -7.721607,-3.929691 -9.8052706,-7.548912 -0.4458445,-0.77441 -0.7299103,-1.936775 -0.9763783,-2.785388 -0.4982097,-1.711419 -1.3363187,-3.284938 -2.1447245,-4.862339 0,0 -16.9593704,9.66768 -16.9593704,9.66768 v 0 c 0.748692,1.498294 1.47548,3.003888 1.941736,4.620511 0.405007,1.167537 0.715396,2.259203 1.392475,3.320463 2.47466,3.878802 7.246232,5.678657 11.0588763,7.813036 17.7601939,8.102377 36.2635967,14.321065 54.6954007,20.697155 11.511815,4.01488 22.945317,8.38708 34.753461,11.45223 0,0 15.986656,-11.34685 15.986656,-11.34685 z"
       id="path1309"
       style="fill:#000000;fill-opacity:1;stroke:#000000;stroke-width:103.825;stroke-miterlimit:4;stroke-dasharray:none" />
  </g>
  <g
     style="display:inline"
     id="layer2">
    <path
       style="fill:#333333;fill-opacity:1"
       d="m 126.23845,582.94669 c -18.647,11.18315 -51.869471,25.19569 -85.819292,10.79516 l -21.9459,-9.309 43.978063,-49.2989 a 210.03369,210.03369 0 1 1 63.787129,47.8127 z m -84.262082,-189.247 a 174.54122,174.54122 0 0 0 55.571601,128.41796 l 12.130721,11.39955 -27.673781,31.0213 c 14.41483,-2.92473 26.969771,-10.72271 33.335901,-15.25183 l 8.73508,-6.21551 9.39476,5.16211 a 176.34274,176.34274 0 0 0 84.70584,21.66658 c 97.15687,0 176.20012,-79.04277 176.20012,-176.20012 0,-97.15688 -79.04325,-176.20012 -176.20012,-176.20012 -97.15687,0 -176.200122,79.04324 -176.200122,176.20012 z"
       fill="#3f3d56"
       id="path229-6" />
    <path
       d="m 24.533585,393.57662 c 0,-106.74742 86.535875,-193.28324 193.283235,-193.28324 106.74736,0 193.28323,86.53582 193.28323,193.28324 0,106.74742 -86.53589,193.28323 -193.28325,193.28323 a 192.40347,192.40347 0 0 1 -92.93222,-23.77652 c -13.3609,9.50629 -45.955004,28.46753 -78.154295,14.8092 L 85.489676,534.44415 A 192.73528,192.73528 0 0 1 24.533585,393.57662 Z"
       fill="#00bfa9"
       id="path231-7"
       style="fill:#10c3ef;fill-opacity:1" />
    <path
       d="m 382.50308,395.38598 c 0,-100.98931 -77.45624,-183.87364 -176.20012,-192.52321 5.63007,-0.49316 11.32507,-0.76 17.08312,-0.76 106.74741,0 193.28323,86.53582 193.28323,193.28323 0,106.74741 -86.53586,193.28322 -193.28323,193.28322 -5.74935,0 -11.43447,-0.27032 -17.05607,-0.7624 98.73089,-8.66228 176.17307,-91.54082 176.17307,-192.52084 z"
       opacity="0.1"
       style="isolation:isolate"
       id="path233-5" />
    <path
       style="fill:#333333;fill-opacity:1"
       d="m 529.68382,708.13494 a 210.59024,210.59024 0 1 1 155.72513,-68.93205 l 43.97806,49.29889 -21.94589,9.309 c -33.94983,14.40053 -67.1723,0.388 -85.8193,-10.79516 a 210.856,210.856 0 0 1 -91.938,21.11932 z m 0,-386.56647 c -97.15687,0 -176.20012,79.04325 -176.20012,176.20012 0,97.15735 79.04325,176.20012 176.20012,176.20012 a 176.3427,176.3427 0 0 0 84.70584,-21.66657 l 9.39476,-5.16211 8.73508,6.2155 c 6.36613,4.52913 18.92107,12.32711 33.3359,15.25183 l -27.67378,-31.02129 12.13072,-11.39955 a 174.54124,174.54124 0 0 0 55.5716,-128.41793 c -4e-5,-97.15687 -79.04328,-176.20012 -176.20012,-176.20012 z"
       fill="#3f3d56"
       id="path235-3" />
    <path
       d="m 722.40437,495.92155 c 0,-106.74742 -86.53588,-193.28324 -193.28324,-193.28324 -106.74736,0 -193.28323,86.53582 -193.28323,193.28324 0,106.74742 86.53588,193.28323 193.28323,193.28323 a 192.40351,192.40351 0 0 0 92.93222,-23.77652 c 13.3609,9.50629 45.955,28.46753 78.15429,14.8092 l -38.7594,-43.44841 a 192.73528,192.73528 0 0 0 60.95613,-140.8675 z"
       fill="#00bfa9"
       id="path237-5"
       style="fill:#10c3ef;fill-opacity:1" />
    <path
       d="m 371.20524,493.1268 c 0,-100.98932 77.45624,-183.87364 176.20012,-192.52322 -5.63007,-0.49315 -11.32507,-0.76 -17.08312,-0.76 -106.74741,0 -193.28323,86.53582 -193.28323,193.28324 0,106.74742 86.53582,193.28323 193.28323,193.28323 5.74935,0 11.43447,-0.27032 17.05607,-0.7624 C 448.6474,676.98536 371.20524,594.10682 371.20524,493.1268 Z"
       opacity="0.1"
       style="isolation:isolate"
       id="path239-6" />
  </g>
  <g
     style="display:none"
     id="layer8">
    <path
       d="m 349.67408,86.72656 c 3.92571,-3.57786 6.52348,-8.66174 7.0617,-13.98634 0.15727,-1.55587 -0.0164,-3.12755 -0.0246,-4.69132 -0.39644,-1.71371 -0.58271,-3.49007 -1.18931,-5.14112 -3.53627,-9.62502 -13.1824,-16.77671 -22.71727,-19.78017 -3.11855,-0.98233 -6.42461,-1.21892 -9.63691,-1.82838 -3.92493,0.58298 -7.95186,0.68588 -11.77479,1.74895 -11.52348,3.20442 -24.91252,11.4237 -33.95047,17.85352 -8.97105,6.38221 -20.37654,18.29002 -25.82597,27.60305 -4.32765,7.3959 -6.96863,15.65725 -10.45294,23.48587 -2.44166,9.35113 -5.38048,18.58638 -7.32496,28.05339 -3.7365,18.19168 -5.89184,38.93791 -6.19458,57.53347 -0.24906,15.29817 0.75187,32.06374 4.17036,47.09762 1.35104,5.94159 3.71795,11.60552 5.57692,17.40827 7.13995,10.18165 8.113,14.9102 20.00987,19.6607 13.38771,5.34579 29.04711,1.45098 41.59977,-4.1132 4.39452,-1.94794 8.39951,-4.6769 12.59926,-7.01535 6.52588,-4.76369 13.53821,-8.92402 19.57762,-14.29107 5.33537,-4.7414 11.89751,-15.52496 14.68649,-22.06057 3.18986,-7.475 5.01426,-16.27583 5.78927,-24.33171 0.38477,-3.99958 0.2555,-8.03202 0.38325,-12.04802 -0.2723,-11.27014 -1.98982,-22.44673 -4.3927,-33.44336 -0.28116,-1.2867 -2.85113,-12.38675 -4.12833,-14.27769 -0.95865,-1.41933 -2.73686,-2.06 -4.1053,-3.09 -0.8958,-0.76893 -1.7916,-1.53785 -2.6874,-2.30678 0,0 -0.34859,0.19206 -0.34859,0.19206 v 0 c -0.18261,1.35924 -0.36521,2.71848 -0.54782,4.07772 -0.43373,2.00578 -1.31211,3.96523 -1.30119,6.01734 0.0117,2.1957 0.88692,4.30119 1.36752,6.44367 0.61428,2.73842 1.32596,5.45474 1.91695,8.19828 2.35219,10.91937 4.18897,21.96212 4.38774,33.16179 -0.13201,3.9668 -0.0156,7.94967 -0.39604,11.90039 -0.79908,8.29792 -2.46319,16.24247 -5.8061,23.92788 -5.78336,13.29603 -6.10932,9.76323 -14.57453,21.5876 -0.81798,1.14256 -1.17572,2.5526 -1.76358,3.8289 -4.20459,2.4212 -8.20622,5.23524 -12.61378,7.26358 -12.30215,5.66142 -27.48381,9.44329 -40.77707,4.6513 -11.96842,-4.31441 -13.08932,-8.65255 -20.82923,-18.3797 -2.12445,-5.60459 -4.77906,-11.03598 -6.37336,-16.81379 -8.73478,-31.65524 -6.63378,-71.75461 0.39449,-103.45586 2.12504,-9.58504 5.42087,-18.87245 8.13131,-28.30867 3.76438,-7.88499 6.70175,-16.22107 11.29314,-23.65496 3.65816,-5.9229 8.43564,-11.11829 13.27481,-16.12283 0.22527,-0.23297 14.51855,-13.2069 19.20896,-15.5386 4.0663,-2.02144 8.25478,-3.8765 12.61712,-5.13787 3.65003,-1.05541 7.50731,-1.17766 11.26097,-1.76649 3.14319,0.56039 6.37544,0.75057 9.42956,1.68115 7.56911,2.30628 14.94452,7.38075 19.42369,13.96265 2.57569,3.78484 2.6765,5.90154 3.64644,10.13514 -0.01,1.49834 0.10296,3.00256 -0.03,4.49502 -0.43953,4.93271 -2.58132,9.30245 -5.9568,12.86059 0,0 7.91642,-3.24605 7.91642,-3.24605 z"
       id="path1391"
       style="fill:#1a1a1a;fill-opacity:1;fill-rule:nonzero;stroke:none" />
    <path
       d="m 381.74378,92.18446 c 0.34315,-4.14982 2.33606,-7.41496 3.97385,-11.08718 0.8385,-2.447 0.4006,-1.37883 1.24064,-3.23349 -3.32228,1.9497 -7.29267,3.07643 -9.96684,5.8491 -1.00485,1.04186 0.10674,2.89309 0.13952,4.34019 0.0824,3.63994 0.16821,7.27999 0.20616,10.92066 0.19289,18.50102 -0.24657,36.94959 -0.83712,55.43988 -1.48639,29.2809 -2.42116,58.62498 -5.50488,87.79588 -0.15126,0.83971 -1.24704,2.83338 -0.45377,2.51915 4.23132,-1.6761 8.38349,-3.90265 11.73088,-6.98622 0.93616,-0.86238 -0.0273,-2.54591 -0.002,-3.81848 0.15504,-7.71418 0.66091,-15.42065 1.10078,-23.12181 1.5434,-17.22043 2.40274,-35.11185 8.89425,-51.37647 1.14099,-2.85879 2.69755,-5.53365 4.04632,-8.30048 1.70895,-1.9361 4.60538,-3.27906 5.12684,-5.8083 0.37382,-1.81311 -4.52827,1.29408 -4.57767,3.14467 -0.0402,1.50638 3.15611,-0.0978 4.47698,0.62749 1.68205,0.92366 3.02754,2.4591 4.07361,4.06788 3.92391,6.03469 4.34312,11.66678 5.89623,18.68592 3.61533,22.60493 0.86254,46.14708 7.41093,68.31699 0.90149,3.05205 2.33485,5.92109 3.50227,8.88163 1.54673,1.98849 2.76172,4.28683 4.64019,5.96548 5.63375,5.03444 12.98208,4.17879 19.01638,0.3809 2.28881,-1.44054 4.0885,-3.54109 6.13275,-5.31164 0,0 -0.36833,0.15081 -0.36833,0.15081 v 0 c -0.78724,0.83874 -1.35037,1.96816 -2.36174,2.51624 -3.83547,2.07848 -9.97808,-1.19292 -12.67377,-3.57118 -1.82365,-1.6089 -3.15086,-3.70528 -4.72629,-5.55792 -1.31728,-2.80668 -2.93487,-5.49115 -3.95182,-8.42005 -7.51941,-21.65659 -4.47088,-45.95531 -7.18638,-68.38178 -1.14196,-7.25274 -1.95657,-20.09629 -9.5149,-24.65656 -8.11535,-4.89635 -20.19272,6.45176 -24.53923,13.35114 -1.2602,2.77606 -2.70028,5.47731 -3.7806,8.3282 -6.26729,16.53907 -7.43335,34.43526 -9.28652,51.84692 -0.35732,4.10191 -1.10126,12.90576 -1.55884,17.20127 -0.232,2.17791 -0.48493,4.35415 -0.79038,6.52298 -0.19137,1.3588 -2.07051,4.11751 -0.69965,4.05674 12.9738,-0.57511 12.10623,-1.28438 10.83964,-6.5206 -1.44849,-28.68769 1.36538,-57.41577 2.12544,-86.08099 0.81318,-18.74775 1.4145,-37.51386 2.41806,-56.25272 0.20344,-3.79863 0.46076,-7.5944 0.74155,-11.3881 0.11737,-1.58583 2.03967,-4.6462 0.45283,-4.74895 -3.6154,-0.23408 -6.70321,2.7515 -10.05481,4.12725 0.0281,0.91624 -0.22947,1.82991 -0.17094,2.74471 0.0418,0.65356 0.32887,1.2695 0.43795,1.91524 0.40242,2.38213 0.11891,4.67909 0.0681,7.07479 0,0 4.31412,-2.14919 4.31412,-2.14919 z"
       id="path1393"
       style="fill:#1a1a1a;fill-opacity:1;fill-rule:nonzero;stroke:none" />
    <path
       d="m 432.06361,157.27108 c 7.80033,-0.73231 15.33386,-3.68689 23.27533,-3.03856 1.75461,0.14325 3.46622,0.61806 5.19933,0.9271 7.14916,2.50076 12.70728,7.28291 16.87916,13.53465 0.72262,1.08288 1.46847,2.1828 1.90586,3.40898 0.31199,0.87462 0.1988,1.84652 0.2982,2.76978 -0.41504,0.74161 -0.70531,1.56843 -1.24513,2.22481 -0.91786,1.11607 -5.89717,5.15968 -6.42273,5.60913 -1.63977,1.40231 -3.2945,2.78873 -4.88588,4.24574 -5.69944,5.21823 -5.37983,5.15714 -10.65809,11.02863 -6.53208,8.71179 -11.55385,18.63051 -12.69921,29.60022 -0.6513,6.23777 -0.036,7.82251 0.87103,13.85271 1.7909,4.7835 4.29765,11.19879 10.17986,12.32058 8.08227,1.54135 22.27901,-10.7444 26.29333,-13.48626 1.49818,-1.94058 3.22946,-3.72175 4.49455,-5.82173 6.25407,-10.38146 8.5244,-25.1886 10.00704,-37.11798 -2.92063,5.86814 1.47159,-5.68715 0.0836,-4.85469 -4.19276,2.51468 -8.79522,4.75523 -11.97515,8.46883 -1.14933,1.34221 0.097,3.53309 0.18681,5.29786 0.44151,8.67789 0.50653,8.07112 1.4452,17.36652 1.57769,10.95657 3.81376,21.82646 7.04087,32.42238 1.61305,5.2963 3.44644,10.85996 6.3253,15.65875 1.02965,1.71634 2.43056,3.18062 3.64584,4.77093 2.20821,1.69 4.55233,4.083 7.59399,4.31322 5.56545,0.42125 15.63164,-8.06763 16.77326,-9.11301 0.71983,-0.65916 -0.65731,-1.93157 -0.47189,-2.88983 0.30878,-1.59572 1.26668,-2.99369 1.90001,-4.49054 0,0 -0.3632,0.16275 -0.3632,0.16275 v 0 c -1.11384,1.70269 -1.95381,3.6201 -3.3415,5.10809 -0.71644,0.76821 -14.87871,11.38125 -1.11094,3.29912 0.97031,-0.5696 -2.09219,1.02553 -3.21732,1.02094 -2.93694,-0.012 -5.15664,-2.13194 -7.35508,-3.65221 -1.29411,-1.45178 -2.75914,-2.76765 -3.88235,-4.35536 -3.44345,-4.86752 -5.13671,-9.28635 -7.0029,-14.99869 -3.43393,-10.51119 -5.50221,-21.42693 -6.60198,-32.4161 -0.40934,-7.16432 -0.81608,-10.74072 -0.51185,-17.69761 0.0801,-1.83082 2.35577,-5.18133 0.54616,-5.47051 -3.88034,-0.62008 -7.49936,2.36659 -11.16861,3.77302 -0.19922,0.0764 0.38072,0.19269 0.57108,0.28903 0.0929,1.09006 0.18577,2.18012 0.27865,3.27017 -0.75464,12.33786 -2.74061,25.63538 -9.64152,36.21351 -1.34024,2.05439 -3.12468,3.78198 -4.68703,5.67297 1.46291,-0.38798 5.10541,-2.49697 4.38871,-1.16395 -0.97243,1.80866 -3.45739,2.27828 -5.37823,3.0044 -5.61771,2.1236 -9.61837,0.18968 -12.71858,-4.76863 -1.04232,-1.66703 -1.57213,-3.60417 -2.35819,-5.40625 -0.33083,-2.14257 -0.86956,-4.26324 -0.99247,-6.42771 -0.75907,-13.36734 5.15307,-25.72995 13.11853,-36.06432 5.40569,-5.87578 5.01445,-5.75413 10.89637,-10.97466 2.66608,-2.36629 9.90377,-7.47877 11.64022,-10.6206 0.45214,-0.81807 0.4597,-1.812 0.68954,-2.71799 -0.30541,-0.96603 -0.43532,-2.00635 -0.91625,-2.89809 -1.50464,-2.78992 -3.9533,-4.85806 -6.29131,-6.895 -4.42773,-3.85753 -9.01989,-7.60571 -14.58145,-9.7001 -1.7873,-0.34239 -3.54959,-0.86212 -5.36189,-1.02717 -8.17312,-0.74437 -15.93072,2.37093 -23.89835,3.51176 0,0 -6.78877,4.92097 -6.78877,4.92097 z"
       id="path1395"
       style="fill:#1a1a1a;fill-opacity:1;fill-rule:nonzero;stroke:none" />
    <path
       d="m 517.63498,88.52877 c 3.00305,-13.3404 6.45344,-26.58578 10.04792,-39.77967 1.53549,-5.64643 1.88444,-7.35143 3.7251,-12.64863 0.39953,-1.1498 2.45808,-3.85123 1.32672,-3.40216 -4.02161,1.59629 -8.12666,3.78429 -10.82028,7.17042 -1.75943,2.21176 -1.07495,5.55035 -1.51918,8.34143 -0.75467,4.74157 -1.38465,9.50215 -2.07697,14.25322 -0.64075,6.40242 -1.55371,12.78342 -1.92224,19.20726 -2.37934,41.47377 2.52911,82.90654 8.08891,123.91883 2.4549,14.12253 4.23896,25.5607 7.37383,39.41112 1.08413,4.78986 2.19919,9.58234 3.65755,14.27182 1.62438,5.22334 3.05045,12.2519 9.32569,14.23349 1.91742,0.60549 4.00111,-0.40438 6.00167,-0.60658 12.30463,-8.64108 9.50956,-3.33161 12.32763,-13.11699 0,0 -0.36387,0.16127 -0.36387,0.16127 v 0 c -6.43778,7.71071 -9.05759,5.93105 -5.21594,7.94162 -1.55323,0.18067 -3.19214,1.08189 -4.65969,0.542 -5.02215,-1.84757 -8.06878,-9.57853 -9.59238,-13.42145 -6.67883,-16.84576 -9.16326,-35.08668 -12.53687,-52.74873 -1.1594,-7.75953 -2.45708,-15.49965 -3.47821,-23.27859 -4.37756,-33.34829 -7.01835,-67.28783 -3.71707,-100.87037 0.64729,-6.58461 1.94086,-13.0896 2.91129,-19.6344 1.1124,-4.93327 2.08407,-9.90039 3.3372,-14.7998 0.7609,-2.97493 4.88548,-6.64941 2.7008,-8.80727 -2.25967,-2.23193 -6.45239,0.81999 -9.23251,2.35576 -0.82398,0.45518 -0.0232,1.88636 -0.13812,2.82067 -0.53239,4.32988 -1.37609,7.63608 -2.32062,11.97706 -2.75332,12.8821 -5.7766,25.72752 -7.75791,38.75711 0,0 4.52755,-2.24844 4.52755,-2.24844 z"
       id="path1397"
       style="fill:#1a1a1a;fill-opacity:1;fill-rule:nonzero;stroke:none" />
    <path
       d="m 488.07606,134.16727 c 1.31272,-0.44435 2.64256,-0.84105 3.93818,-1.33306 4.76725,-1.81037 9.43403,-3.87635 14.18367,-5.73243 11.25328,-4.39759 22.54679,-8.63341 33.74768,-13.16984 15.00792,-6.48769 30.00615,-12.99841 44.92097,-19.69747 0,0 0.31416,-0.24436 0.31416,-0.24436 v 0 c -1.66026,0.20764 -3.36926,0.17279 -4.98077,0.6229 -11.64311,3.252 -22.02032,9.96833 -33.39398,13.92334 -16.6674,6.61126 -33.56183,12.6146 -50.24083,19.19733 0,0 -8.48908,6.43359 -8.48908,6.43359 z"
       id="path1399"
       style="fill:#1a1a1a;fill-opacity:1;fill-rule:nonzero;stroke:none" />
    <path
       d="m 616.17275,80.63134 c 0.37075,-2.2094 -0.0318,-4.27841 1.31576,-6.23486 0.18229,-0.26465 1.07511,-0.70326 0.81682,-0.51206 -3.07931,2.27944 -7.10598,3.62514 -9.282,6.77838 -1.22654,1.77736 0.0897,4.31806 0.13453,6.47709 -0.34033,41.51799 -3.23858,82.96149 -5.68641,124.3935 -1.27496,19.25988 -1.63455,38.55423 -2.07326,57.84432 -0.034,1.49243 -1.57388,4.6813 -0.0951,4.47744 4.19163,-0.57784 7.45539,-4.00398 11.18309,-6.00597 1.07583,-27.96479 1.77783,-55.94319 2.62929,-83.91604 0.9844,-22.47592 1.40006,-45.03466 4.65041,-67.33555 1.51632,-10.40358 2.3562,-13.38538 4.5518,-23.24727 0.81097,-2.9101 2.88671,-10.84169 4.23592,-14.1793 0.38716,-0.95775 2.38673,-3.27601 1.53407,-2.69279 -3.43079,2.34662 -7.69315,4.35798 -9.46545,8.11776 -1.20586,2.55813 1.21143,5.52604 1.72285,8.3075 0.84227,4.58083 1.55838,9.18395 2.33757,13.77592 4.52308,28.61309 9.96144,57.07544 13.47431,85.84229 2.34645,19.21501 2.97768,28.49908 4.6116,47.54428 0.52679,6.59069 1.05358,13.18137 1.58037,19.77206 0.34049,5.15106 0.61145,10.30719 1.02145,15.45319 0.25226,3.16614 0.42275,6.34999 0.96502,9.47954 0.15412,0.88944 0.35113,2.96719 1.10588,2.47199 4.70225,-3.08518 9.6109,-6.52612 12.46192,-11.37393 2.22283,-3.77966 1.25575,-8.67931 1.88363,-13.01896 6.84124,-42.87685 9.90085,-86.21277 14.39247,-129.36804 0.56817,-4.95809 2.41361,-22.06002 3.47547,-28.09607 0.48227,-2.74145 1.00477,-5.49695 1.90918,-8.12948 0.57563,-1.67553 4.25081,-4.93485 2.49581,-4.69251 -10.53337,1.45447 -8.26818,4.41302 -6.76095,9.39954 0.47156,3.77112 1.1299,7.52355 1.41469,11.31335 0.97928,13.03174 1.25784,32.95953 1.32903,45.40621 0.20715,36.2196 -0.29637,22.92532 -0.55763,59.98294 -0.0737,10.45984 0.0176,20.9202 0.0264,31.3803 0.34893,26.71995 1.43101,53.54331 6.0018,79.9273 1.71623,9.90656 4.76249,23.0325 8.45979,32.72105 1.1795,3.09082 2.90321,5.94548 4.35482,8.91822 1.43095,1.40524 2.50811,3.30082 4.29285,4.2157 1.38527,0.71011 3.23553,1.0097 4.65525,0.37123 7.29811,-3.28211 15.48804,-6.74554 18.03369,-14.87693 0.72034,-2.30093 0.52454,-4.7935 0.78681,-7.19025 0,0 -0.36245,0.16443 -0.36245,0.16443 v 0 c -2.5535,3.38192 -4.98502,6.85949 -7.66049,10.14576 -1.86962,2.29644 -5.69074,3.6375 -5.96171,6.58635 -0.18512,2.01449 4.42735,-0.72978 5.57653,-2.39466 1.80965,-2.62176 -14.25773,5.63132 -9.09216,-2.94428 -1.79534,-2.70625 -3.8997,-5.23121 -5.38603,-8.11874 -5.26406,-10.22667 -8.00253,-20.12587 -10.445,-31.43542 -5.59698,-25.91607 -7.275,-52.4451 -7.75671,-78.88983 0.0324,-10.47698 -0.0341,-20.95472 0.0973,-31.43092 0.0568,-4.52758 1.25059,-55.2193 1.38114,-60.41106 0.39247,-15.60804 1.12792,-31.20919 1.2801,-46.82142 0.0397,-4.07029 -0.17031,-8.13918 -0.25546,-12.20877 -2.69557,-8.81912 -0.92462,-9.80663 -13.6084,0.86218 -1.17641,0.98953 -1.05634,2.89963 -1.36057,4.40647 -1.36452,6.7584 -1.37881,12.3053 -1.75538,19.33884 -0.27816,5.19537 -0.53723,10.39175 -0.80585,15.58762 -1.85709,23.54609 -1.30442,17.9549 -3.78396,43.01086 -2.89822,29.28671 -6.05328,58.64547 -12.83227,87.34061 -3.55031,12.77052 -9.22599,15.96605 4.61261,13.88091 0.82731,-0.12466 -1.93684,-0.25191 -2.2996,-1.00582 -1.29842,-2.69852 -1.7595,-5.73488 -2.35581,-8.66956 -2.54663,-12.53302 -3.06804,-21.16163 -4.43298,-34.25179 -2.49863,-24.0661 -5.06418,-48.10809 -8.17254,-72.10505 -1.90208,-14.6843 -4.17737,-29.31874 -6.06874,-44.00442 -0.78095,-6.0637 -1.39138,-12.14814 -2.08706,-18.22222 -0.38181,-4.80245 -0.8062,-9.6017 -1.14543,-14.40735 -0.21498,-3.04548 2.113,-7.59415 -0.51709,-9.14455 -11.40311,-6.72201 -11.8131,5.11732 -12.848,10.12085 -0.55607,2.68849 -1.10231,5.379 -1.65346,8.06849 -2.00611,9.96657 -2.71138,12.53717 -3.97767,23.06108 -2.6736,22.21973 -2.90882,44.65257 -3.81961,66.98417 -0.68458,18.07699 -1.19362,36.19045 -2.61153,54.23015 -0.49956,6.35579 -1.64316,18.2898 -2.91664,25.12689 -0.38164,2.04891 -1.05864,4.03163 -1.58797,6.04744 3.25431,-1.32991 7.13937,-1.6496 9.76291,-3.98973 0.97299,-0.86789 -0.89212,-2.47018 -1.07306,-3.76139 -0.40004,-2.85479 -0.5303,-5.743 -0.66231,-8.62266 -0.73001,-15.92366 -0.24665,-31.88869 0.10176,-47.81193 1.84175,-41.94358 4.48372,-83.86643 8.21657,-125.68519 0.19732,-2.30732 2.65365,-5.86741 0.59195,-6.92195 -2.8854,-1.47586 -6.28022,1.60421 -9.42032,2.40632 0.75957,0.22921 1.13072,0.22499 1.50931,1.29015 0.42235,1.18827 -0.10067,2.57893 0.38711,3.76342 0,0 5.27539,-2.66537 5.27539,-2.66537 z"
       id="path1401"
       style="fill:#1a1a1a;fill-opacity:1;fill-rule:nonzero;stroke:none" />
    <path
       d="m 700.66783,218.77261 c 3.49495,0.0455 6.92893,-1.21066 9.9316,-2.95054 8.30889,-4.81453 13.31993,-7.28737 19.38048,-13.52113 1.69096,-1.7393 3.14592,-3.6934 4.71889,-5.5401 3.43273,-5.94033 7.85633,-12.4249 7.5848,-19.67374 -0.0554,-1.4793 -0.32364,-3.10683 -1.25007,-4.26143 -0.84155,-1.04881 -2.26866,-1.72701 -3.61151,-1.79747 -1.86758,-0.098 -3.635,0.88127 -5.4525,1.32191 -5.41495,3.6504 -11.31573,6.66742 -16.24486,10.95121 -2.60352,2.26266 -4.31552,5.41629 -6.0314,8.40857 -6.97775,12.16831 -8.72627,24.01051 -8.15051,37.89093 0.18439,4.4451 0.97586,8.84417 1.46378,13.26625 2.83198,12.70568 7.38561,35.44522 22.14132,40.11318 2.09011,0.66121 4.36686,0.39181 6.55029,0.58772 2.28232,-0.69444 4.72141,-1.00014 6.84696,-2.08332 12.2672,-6.25135 24.60987,-13.6714 32.25351,-25.5126 0.94579,-1.46517 1.61568,-3.09104 2.42352,-4.63657 -0.52827,-0.89331 -1.05655,-1.78663 -1.58483,-2.67994 0,0 -0.36371,0.1616 -0.36371,0.1616 v 0 c -2.30154,2.12309 -4.60309,4.24619 -6.90463,6.36929 -4.60762,5.44735 -9.10714,11.11516 -14.44069,15.89051 -1.84787,1.65448 -4.78576,2.40803 -5.78714,4.6772 -0.70955,1.60789 6.4952,-2.41562 4.74108,-2.30677 -2.29864,0.14264 -4.31576,1.60952 -6.47364,2.41428 -2.13638,-0.004 -4.3236,0.45255 -6.40913,-0.0108 -11.27096,-2.50405 -17.24404,-16.5504 -20.35414,-26.2184 -1.24413,-3.86752 -2.01458,-7.8717 -3.02187,-11.80755 -0.53836,-4.33891 -1.40608,-8.64955 -1.61508,-13.01674 -0.4252,-8.88524 0.25507,-17.96421 3.19074,-26.44304 1.33127,-3.84498 3.61935,-7.28869 5.42902,-10.93304 2.21338,-2.7942 5.38548,-5.04607 6.64014,-8.38261 0.43917,-1.16787 -2.46687,0.37645 -3.7003,0.56467 1.86545,-0.69989 5.64141,-3.13168 7.9339,-0.97749 0.93344,0.87712 1.3071,2.29236 1.42776,3.56755 0.63342,6.69424 -3.4553,12.88724 -6.43343,18.44795 -1.57118,1.79717 -3.02166,3.70747 -4.71354,5.3915 -1.69305,1.68518 -4.14653,2.66889 -5.41689,4.69187 -0.63177,1.00607 4.2599,-2.03911 3.30621,-1.33074 -2.68739,1.99612 -6.3445,2.78797 -9.57876,3.27944 0,0 -8.42537,6.08838 -8.42537,6.08838 z"
       id="path1403"
       style="fill:#1a1a1a;fill-opacity:1;fill-rule:nonzero;stroke:none" />
  </g>
  <g
     id="layer12">
    <path
       d="m 377.76713,116.25569 c 1.37731,-10.4737 1.71542,-21.260052 -1.85774,-31.397482 -3.07136,-8.71379 -6.79385,-13.75246 -11.64584,-21.63013 -11.29406,-15.52473 -28.31344,-37.709625 -49.89608,-37.426651 -4.0122,0.0526 -7.85904,1.624006 -11.78857,2.436009 -11.20005,7.654403 -23.63413,13.75943 -33.60015,22.963212 -7.23303,6.67982 -17.52947,34.28026 -19.95344,41.66538 -5.36994,16.360632 -10.84382,39.808032 -12.33907,56.927922 -0.90627,10.37647 -0.30088,20.82977 -0.45132,31.24465 1.04497,10.58373 1.62752,21.22337 3.13492,31.7512 5.07964,35.47678 15.64471,73.08246 30.89388,105.60504 2.58447,5.51202 5.68142,10.76888 8.52213,16.15333 4.27609,5.94604 9.49844,15.09666 16.64154,18.75093 6.52334,3.3372 13.89716,2.33299 20.09045,-1.1183 35.86363,-19.98552 28.68825,-13.22772 44.36657,-33.17682 2.14679,-4.3828 4.62299,-8.61907 6.44037,-13.14839 7.7539,-19.3245 10.83012,-42.9241 12.22117,-63.67735 -0.16482,-2.20879 -1.2218,-13.65591 -4.95446,-14.26627 -2.98364,-0.48789 -5.99475,0.78964 -8.99212,1.18446 0,0 -0.86426,0.4361 -0.86426,0.4361 v 0 c -3.09052,2.76759 -6.63178,5.10238 -9.27154,8.30277 -2.80985,3.4066 -3.36289,14.37454 -4.1482,18.51769 -1.32707,25.98533 -4.2334,52.2676 -18.72431,74.67581 -12.51993,14.23818 -13.01975,12.14363 8.65091,1.80527 3.07821,-1.46851 -5.98609,3.5135 -9.32424,4.21253 -12.70335,2.66015 -20.7576,-8.27418 -28.15808,-16.41026 -3.42921,-4.9428 -7.1901,-9.67127 -10.28764,-14.8284 -18.66475,-31.07507 -29.431,-66.95197 -34.61441,-102.66315 -1.51799,-10.45814 -1.98122,-21.0424 -2.97182,-31.56359 0.25383,-10.35322 -0.19621,-20.7477 0.76148,-31.05966 1.73215,-18.65108 6.60225,-39.16171 13.09171,-56.726352 3.05333,-8.26426 6.60598,-16.38225 10.86793,-24.09307 3.49315,-6.31986 11.17397,-10.6977 12.30386,-17.829753 0.52169,-3.293045 -6.53195,1.341255 -9.79792,2.011883 3.75884,-1.10322 7.37504,-2.957003 11.27653,-3.309658 17.15527,-1.55066 31.73713,12.053818 41.60418,24.259168 2.79262,3.45442 5.16903,7.22552 7.75355,10.83828 2.04889,3.66689 4.34069,7.20826 6.14668,11.00067 6.18498,12.98792 8.2412,27.443672 4.2629,41.368282 0,0 24.61045,-11.7853 24.61045,-11.7853 z"
       id="path3530"
       style="fill:#333333;fill-opacity:1;fill-rule:nonzero;stroke:none" />
    <path
       d="m 385.32206,39.818951 c -0.9345,5.349817 -1.05495,4.760267 -0.81437,11.445747 0.32069,8.91147 1.82699,24.91257 2.42064,32.89765 1.61488,21.721732 1.95442,29.055142 3.26604,51.356532 1.96847,37.07739 4.59814,74.11656 6.42981,111.20158 0.35518,7.19131 0.81576,14.3803 0.95827,21.57896 0.11399,5.75846 -0.12604,11.51849 -0.18906,17.27773 -0.18103,3.74836 -0.16037,7.51192 -0.54308,11.24509 -1.43976,14.04416 -13.21304,14.24055 24.70358,-11.33123 0.26597,-0.17938 0.32917,-0.59219 0.3068,-0.91221 -0.16604,-2.37489 -0.69856,-4.71457 -0.86622,-7.08935 -0.23987,-3.39753 -0.23685,-6.80786 -0.35528,-10.21179 0.0992,-22.85757 1.06385,-45.80281 4.57128,-68.42059 0.6782,-4.37345 1.57121,-8.71088 2.35682,-13.06633 1.43737,-5.91097 3.06888,-14.59018 6.08595,-20.19826 1.22397,-2.27509 7.14103,-7.09478 4.74547,-6.12762 -53.58787,21.63506 -20.3506,9.96715 -14.79331,12.20909 1.90605,0.76894 3.30516,2.44398 4.95774,3.66597 1.59889,2.69882 3.51546,5.23314 4.79667,8.09645 5.96239,13.32515 7.58694,28.25284 9.27762,42.56381 6.74278,57.07514 -3.00556,-20.84444 4.32758,37.03468 2.40288,15.93527 5.47444,31.86339 11.96812,46.71072 2.44893,5.5993 6.34975,13.22062 11.20872,17.45802 1.8509,1.61413 4.29151,2.38913 6.43727,3.5837 17.70837,-0.64404 13.37701,0.70504 38.19251,-19.17453 1.53699,-1.23127 0.0137,-3.93903 0.0657,-5.90769 0.0675,-2.55331 0.19512,-5.10467 0.29269,-7.65701 0,0 -0.88367,0.3953 -0.88367,0.3953 v 0 c -3.55087,4.03247 -6.8118,8.34007 -10.65262,12.0974 -3.85241,3.76867 -17.60448,9.16333 -12.3634,10.41833 4.61767,1.10573 28.65184,-13.93908 11.90845,-7.81654 -2.13294,-0.71238 -4.49136,-0.94614 -6.39883,-2.13715 -5.26994,-3.2905 -9.99661,-10.10435 -12.83196,-15.24354 -7.6687,-13.89982 -10.99672,-29.49535 -13.5983,-44.98905 -4.07282,-33.15614 -0.6875,-4.12408 -4.0287,-37.17699 -1.50604,-14.89846 -2.87628,-30.15877 -8.33067,-44.2692 -1.26187,-3.26441 -3.12493,-6.26335 -4.68739,-9.39503 -1.82825,-1.74367 -3.30662,-3.95092 -5.48476,-5.23102 -1.7966,-1.05586 -4.1599,-2.41591 -6.05609,-1.55156 -10.37178,4.72785 -20.07405,10.942 -29.28235,17.66015 -1.98433,1.44771 -2.67707,4.14242 -3.67686,6.38605 -3.62465,8.13411 -3.77167,11.58655 -5.58104,20.5172 -4.1863,27.35007 -6.68849,54.87315 -8.03417,82.50992 -0.0493,0.83355 -1.11386,16.92658 -0.87324,19.13862 0.23286,2.14071 -0.21188,6.97285 1.79963,6.20427 31.12509,-11.89271 28.73534,-7.64336 26.20957,-21.87975 -0.59931,-3.37796 -1.15228,-6.76399 -1.72842,-10.14598 -0.95065,-5.22973 -2.10507,-10.42648 -2.85195,-15.68918 -0.98281,-6.92519 -1.62805,-13.89467 -2.33414,-20.85352 -3.72501,-36.71131 -5.94782,-73.55324 -7.90784,-110.39401 -1.58936,-31.997582 -3.31797,-64.107222 -1.96226,-96.142099 0,0 -20.17694,9.35826 -20.17694,9.35826 z"
       id="path3532"
       style="fill:#333333;fill-opacity:1;fill-rule:nonzero;stroke:none" />
    <path
       d="m 471.64414,171.22424 c 10.49868,-2.82886 20.25711,-8.10158 31.01222,-10.04687 2.36525,-0.42781 4.78045,-0.50683 7.17068,-0.76025 4.42381,0.41548 7.90446,0.14253 11.78012,2.64047 1.2312,0.79353 1.99455,2.14639 2.95645,3.25107 2.48588,2.85487 3.78765,3.41141 0.7462,5.99192 -9.97978,6.79503 -19.85106,17.15814 -24.71565,28.29086 -1.51892,3.47607 -2.28044,7.23604 -3.42065,10.85406 -0.48751,3.93655 -1.30056,7.84633 -1.46252,11.80963 -0.52903,12.94577 3.07402,30.45426 8.60741,42.26124 0.95061,2.0284 2.33328,3.82466 3.49992,5.73699 3.64684,2.41759 4.57349,4.42328 9.31999,1.5153 10.53294,-6.4531 21.09355,-13.00524 30.63758,-20.84724 2.13643,-1.75544 2.65013,-4.86289 3.74361,-7.40262 3.28348,-7.62627 3.67174,-10.51853 5.76509,-18.67896 1.81609,-10.79322 2.80312,-21.72823 3.22085,-32.66231 0.2404,-6.29247 -0.10508,-12.4753 0.74611,-18.7198 12.53753,2.54957 -6.16532,-1.57955 -26.83494,17.72126 -1.83164,1.71035 1.19609,4.86921 1.67741,7.3286 0.81493,4.16412 1.5344,8.34705 2.21018,12.536 1.63454,10.13196 3.69203,25.20127 5.08591,35.12684 2.86141,19.61085 5.6234,39.28104 10.66202,58.4835 2.5357,9.66368 5.44643,19.54455 10.45878,28.29701 1.77199,3.09421 4.24158,5.73281 6.36238,8.59922 2.35128,1.66175 4.48401,3.68682 7.05384,4.98526 15.61352,7.88895 33.69806,-8.60573 44.18754,-16.37415 1.12892,-0.83607 0.095,-3.14803 -0.92782,-4.11102 -1.76619,-1.66293 -4.41918,-2.00248 -6.62877,-3.00372 0,0 -0.87486,0.41442 -0.87486,0.41442 v 0 c -3.56074,3.55044 -7.03913,7.18541 -10.68221,10.65131 -2.31983,2.20702 -10.19304,7.49451 -7.19878,6.36007 7.68502,-2.91165 14.42108,-7.88552 21.63162,-11.82828 -1.80768,0.38567 -3.57503,1.12115 -5.42305,1.15703 -2.27949,0.0443 -4.6101,-0.21298 -6.77757,-0.92015 -2.56567,-0.83709 -4.81822,-2.43277 -7.22733,-3.64915 -2.37744,-2.44906 -5.10182,-4.6036 -7.13233,-7.34716 -5.61039,-7.58059 -9.73226,-17.51678 -12.57236,-26.33096 -6.06004,-18.80709 -8.41658,-38.49118 -10.87479,-58.00299 -1.98918,-18.8204 -2.02235,-17.93722 -3.46871,-35.97661 -0.35465,-4.4233 -0.63834,-8.85202 -0.96834,-13.27723 -0.19987,-2.68008 2.05843,-8.24378 -0.62126,-8.03861 -37.13585,2.84334 -36.41702,3.03704 -28.69633,11.29086 1.08594,5.91143 0.96173,11.72492 0.83017,17.73144 -0.23581,10.76596 -0.80119,21.5389 -3.46057,32.03515 -2.37131,7.71208 -3.05646,11.29182 -6.79808,18.36744 -1.31136,2.47986 -7.26488,7.64649 -4.51268,7.10353 7.89791,-1.55811 14.26187,-7.54004 21.7467,-10.50349 1.49161,-0.59056 -1.99263,2.78471 -3.51665,3.28572 -1.27434,0.41893 -2.62439,-0.55702 -3.93659,-0.83553 -1.37776,-1.54438 -2.98405,-2.91191 -4.13328,-4.63313 -7.59997,-11.38264 -10.55541,-26.43829 -9.60572,-39.9313 0.27034,-3.84083 1.22948,-7.60187 1.84421,-11.40281 1.33442,-3.48725 2.32993,-7.12385 4.00326,-10.46175 4.24066,-8.45915 10.96202,-15.39481 17.93771,-21.60783 1.62248,-1.44508 3.41235,-2.69992 4.98838,-4.19554 1.11692,-1.05992 2.04665,-2.30109 3.06997,-3.45164 0.18102,-1.0629 0.70661,-2.12298 0.54305,-3.18871 -0.1635,-1.06541 -0.80047,-2.03664 -1.47411,-2.87809 -2.79364,-3.48959 -4.40252,-3.40969 -8.81301,-4.95576 -7.6296,-2.67453 -4.80014,-1.84822 -13.04027,-3.07516 -2.55732,0.21825 -5.14575,0.20109 -7.67195,0.65475 -10.82784,1.94447 -20.60308,7.47673 -31.20641,10.18486 0,0 -18.82177,14.43301 -18.82177,14.43301 z"
       id="path3534"
       style="fill:#333333;fill-opacity:1;fill-rule:nonzero;stroke:none" />
    <path
       d="m 604.64581,12.664888 c -1.05194,1.656733 -2.37457,3.169922 -3.15581,4.970201 -6.53216,15.052711 -6.12493,32.646699 -6.50404,48.641039 -0.76687,32.3529 -0.29066,28.66687 1.32592,63.128702 2.49142,36.21791 6.70503,72.33182 13.16697,108.06351 3.58267,19.81056 6.94937,36.78803 13.65082,55.64866 2.20427,6.20374 5.26964,12.06697 7.90446,18.10046 1.87851,2.62405 8.5979,15.41905 15.22696,14.79546 9.337,-0.87832 11.40759,-5.10162 15.85599,-10.84243 0,0 -0.88715,0.38743 -0.88715,0.38743 v 0 c -0.75694,1.36393 -2.82445,2.63344 -2.27082,4.09178 0.50059,1.31862 2.98046,-2.04511 2.53923,-3.38477 -2.0442,-6.20652 -15.81784,-4.80539 -12.25618,-15.29978 -2.6493,-5.93387 -5.66499,-11.71737 -7.94788,-17.80162 -6.70352,-17.86593 -11.23112,-35.89958 -15.01643,-54.60748 -7.19197,-35.54435 -11.25448,-71.68139 -12.9411,-107.88936 -0.34305,-27.422262 -1.15182,-37.592542 0.92106,-64.015322 1.3701,-17.464509 2.7934,-23.270761 5.59456,-39.174904 1.69033,-9.5971779 1.22511,-6.214902 1.97888,-12.5587439 0,0 -17.18544,7.7471679 -17.18544,7.7471679 z"
       id="path3536"
       style="fill:#333333;fill-opacity:1;fill-rule:nonzero;stroke:none" />
    <path
       d="m 568.3865,165.25971 c 16.85305,-6.2501 32.88834,-14.51812 48.97648,-22.48316 19.47115,-11.23354 9.9552,-5.66303 28.55568,-16.69809 0,0 0.75674,-0.60372 0.75674,-0.60372 v 0 c -6.26333,0.77447 -2.80343,0.15717 -10.32332,2.1439 -15.78588,7.56505 -31.61006,15.02178 -47.72957,21.85276 0,0 -20.23601,15.78831 -20.23601,15.78831 z"
       id="path3538"
       style="fill:#333333;fill-opacity:1;fill-rule:nonzero;stroke:none" />
    <path
       d="m 594.10228,472.37717 c 7.6699,-4.79442 15.82893,-8.88322 23.00969,-14.38327 2.43396,-1.86428 9.16231,-16.20625 9.55562,-17.06071 4.81623,-10.4632 9.63899,-22.49693 13.26856,-33.32583 2.42604,-7.23812 4.44654,-14.60589 6.66981,-21.90884 9.69752,-39.78349 12.40714,-80.76191 17.65899,-121.25232 4.04252,-31.16673 4.29293,-30.62799 9.62048,-60.77679 4.76885,-20.94555 8.44348,-42.29112 14.81403,-62.8527 1.171,-3.77951 2.36073,-7.591 4.14157,-11.12434 0.73893,-1.46611 4.67066,-4.5635 3.30554,-3.65139 -9.24906,6.17981 -18.04186,13.01662 -27.0628,19.52494 4.90737,35.52599 6.64277,71.38883 9.96413,107.07817 3.0706,32.99484 3.06518,30.90287 7.09213,62.37045 1.03369,7.99753 2.05396,15.99681 3.10106,23.9926 0.75829,5.79036 1.45706,11.58935 2.3151,17.36578 0.57045,3.84026 1.51421,13.82657 4.11757,11.71393 31.70916,-25.73208 27.25744,-16.0682 27.45152,-44.75847 1.02274,-39.59296 2.53104,-79.22834 5.50081,-118.7311 0.92442,-12.29625 4.50971,-49.11605 5.79659,-62.54482 1.95732,-12.74599 3.15706,-26.50252 7.81983,-38.77295 0.94725,-2.49275 6.60532,-7.991892 4.22238,-6.794952 -8.45989,4.249362 -17.48682,8.814942 -23.22897,16.341862 -2.11811,2.77644 2.38939,6.5846 3.13633,9.99592 1.40684,6.42514 2.20773,12.96812 3.3116,19.45218 1.23226,10.0045 2.62229,19.99083 3.69678,30.01351 3.17036,29.57247 4.30861,48.09023 6.72663,78.0928 3.56044,44.17781 7.35088,88.33359 11.27433,132.48038 3.73075,33.23083 4.19476,42.60127 9.93248,74.58369 2.66227,14.83967 6.46853,37.74133 14.46883,51.66628 14.25976,15.66551 9.23335,7.72687 16.6215,22.76634 0,0 0.84158,-0.4784 0.84158,-0.4784 v 0 c -9.32092,-18.97654 -1.90323,-0.13873 -4.52735,-29.3165 -1.16955,-13.0043 -8.26562,-41.93001 -10.47028,-53.61237 -5.34542,-28.32496 -7.19994,-44.76311 -11.18025,-73.79665 -1.54315,-14.26536 -3.29599,-28.50959 -4.62945,-42.79607 -6.24533,-66.91174 -8.40109,-134.12567 -10.48692,-201.26581 -0.41116,-6.95299 -0.60136,-13.92258 -1.23347,-20.85898 -0.39303,-4.31275 2.48764,-12.685972 -1.83944,-12.860972 -31.81856,-1.2868 -29.51726,12.475122 -30.64791,31.682892 -0.43465,7.38396 -0.81596,14.77096 -1.22394,22.15643 -5.10542,61.29192 -9.9286,122.6199 -16.32559,183.79316 -4.73964,29.76444 -9.17664,18.11188 20.30715,15.02446 1.1314,-0.11847 -1.56086,3.10414 -2.44171,2.3843 -2.2762,-1.86014 -3.1564,-5.0134 -4.15751,-7.77727 -4.16136,-11.48873 -6.84083,-27.82184 -9.12538,-39.21932 -3.4157,-22.88306 -6.02113,-38.29098 -8.16686,-61.66263 -3.42769,-37.33502 -3.77085,-74.8714 -0.53867,-112.23195 -9.61405,2.59832 -19.49975,4.34518 -28.84213,7.79498 -0.90937,0.33579 -0.0128,1.94333 -0.13455,2.90504 -0.42033,3.32121 -0.87223,6.64175 -1.49007,9.93193 -3.84625,20.4825 -9.04019,40.7304 -11.54467,61.46367 -3.99888,27.62697 -4.72515,31.80584 -8.31885,60.2302 -5.16486,40.8514 -9.13504,82.03798 -19.93265,121.91802 -2.32843,7.2993 -4.43115,14.6745 -6.9853,21.89792 -3.79996,10.74668 -9.06359,23.2256 -14.33326,33.48524 -1.86227,3.62569 -3.90894,7.1604 -6.0939,10.60126 -1.35036,2.12652 -6.96228,6.58469 -4.49542,6.07465 6.23347,-1.28881 11.345,-5.77578 17.01751,-8.66367 0,0 -17.30283,13.69609 -17.30283,13.69609 z"
       id="path3540"
       style="fill:#333333;fill-opacity:1;fill-rule:nonzero;stroke:none" />
    <path
       d="m 772.16413,337.53387 c 5.98793,2.05643 12.54815,2.01401 18.33901,-1.00655 11.02201,-5.74916 21.86418,-11.89778 32.24751,-18.73328 5.5913,-3.68084 11.00836,-11.69047 14.93246,-16.82412 3.5331,-7.05005 9.351,-16.45487 5.28054,-24.74487 -0.93571,-1.90569 -2.45982,-3.73411 -4.39306,-4.61149 -6.51885,-2.95852 -11.22613,0.26239 -17.27727,2.39297 -11.62568,7.44048 -23.98142,13.84777 -34.87703,22.32143 -3.83335,2.98125 -6.21472,7.50272 -8.7763,11.62834 -9.11871,14.68634 -13.58385,31.28967 -13.35824,48.5879 0.0715,5.48177 1.21243,10.89724 1.81865,16.34586 3.75806,10.23738 4.69135,17.66114 13.93099,24.60113 11.08336,8.32482 29.02447,7.81164 40.94307,1.79511 13.93023,-7.032 26.96621,-15.71065 40.44932,-23.56598 4.75188,-5.58976 17.63813,-19.65149 19.8681,-26.84691 1.30587,-4.21368 -1.35734,-8.84273 -0.75403,-13.21267 0.77697,-5.62781 3.22302,-10.89567 4.83452,-16.34351 0,0 -0.87864,0.40635 -0.87864,0.40635 v 0 c -2.99763,6.07128 -5.15805,12.63349 -8.99289,18.21383 -5.2949,7.70496 -12.26789,14.11409 -18.19274,21.34585 -19.43449,23.72138 -2.92072,6.85145 -25.21178,27.78923 4.78962,-2.50582 12.68138,-2.3821 14.36885,-7.51748 1.47786,-4.49751 -8.77447,3.74423 -13.42315,4.63949 -4.35642,0.83896 -8.90578,1.11948 -13.29974,0.50686 -9.54272,-1.33048 -15.58488,-5.1931 -21.10037,-13.06778 -2.68427,-3.83244 -4.04994,-8.43621 -6.07491,-12.65431 -0.74366,-5.14263 -2.12406,-10.23287 -2.23098,-15.42788 -0.22769,-11.06283 2.30317,-22.90297 6.52651,-33.08465 2.03524,-4.90656 4.65978,-9.58573 7.62385,-13.99377 2.69063,-4.00141 13.40091,-8.64489 9.25922,-11.11411 -4.99631,-2.97872 -10.61487,4.76112 -15.9223,7.14167 3.87735,-1.86274 9.408,-5.65848 14.3768,-4.5684 1.51076,0.33143 2.88725,1.48545 3.69807,2.80256 4.10667,6.67103 -1.24143,15.71868 -4.17462,21.37289 -2.21823,2.81837 -4.20079,5.83936 -6.6547,8.4551 -2.45819,2.6203 -11.57257,7.77114 -8.02634,7.19415 5.8522,-0.95219 10.78222,-5.06491 15.6597,-8.43614 2.10418,-1.45437 -4.73407,1.9956 -7.21901,2.60208 -2.02738,0.4948 -4.13688,0.67102 -6.22376,0.67877 -1.42306,0.005 -2.81398,-0.42664 -4.22098,-0.63997 0,0 -22.87433,15.5723 -22.87433,15.5723 z"
       id="path3544"
       style="fill:#333333;fill-opacity:1;fill-rule:nonzero;stroke:none" />
  </g>
</svg>
